<svg width="252" height="268" viewBox="0 0 252 268" fill="none" xmlns="http://www.w3.org/2000/svg">
<g clip-path="url(#clip0_70_2487)">
<path d="M97.6264 151.705C96.8024 152.564 95.9784 153.352 95.1544 154.211C96.5158 154.533 97.913 154.892 99.2744 155.214C98.6653 154.068 98.0921 152.922 97.6264 151.705ZM97.6264 151.705C96.8024 152.564 95.9784 153.352 95.1544 154.211C96.5158 154.533 97.913 154.892 99.2744 155.214C98.6653 154.068 98.0921 152.922 97.6264 151.705ZM129.225 96.8159C110.022 96.9233 93.9363 109.813 88.9923 127.429C87.9892 131.081 87.416 134.984 87.4518 138.994C87.5234 150.667 92.3241 161.193 100.063 168.748C107.693 176.231 118.155 180.778 129.655 180.707C144.272 180.635 157.097 173.116 164.513 161.766C166.341 159.081 167.774 156.216 168.884 153.137C170.532 148.59 171.428 143.649 171.392 138.564C171.285 115.363 152.404 96.7085 129.189 96.8159H129.225ZM129.619 173.08C124.173 173.08 118.943 171.827 114.321 169.572C107.944 166.457 102.678 161.408 99.2744 155.178C98.6653 154.032 98.0921 152.886 97.6264 151.669C96.0142 147.766 95.1185 143.398 95.0827 138.923C95.0469 130.007 98.4145 121.808 104.003 115.685C110.237 108.775 119.194 104.478 129.261 104.407C139.328 104.335 148.75 108.811 155.055 115.9C160.465 121.915 163.761 129.864 163.797 138.564C163.833 145.94 161.54 152.779 157.599 158.365C151.473 167.208 141.227 173.009 129.619 173.08ZM97.6264 151.705C96.8024 152.564 95.9784 153.352 95.1544 154.211C96.5158 154.533 97.913 154.892 99.2744 155.214C98.6653 154.068 98.0921 152.922 97.6264 151.705Z" fill="black"/>
<path d="M121.773 134.984L110.381 142.682L106.619 154.14L91.2856 142.789C90.7482 139.961 89.1718 129.935 94.9756 119.874C98.6657 113.537 103.646 110.028 106.368 108.381L117.868 119.767L121.773 135.02V134.984Z" fill="black"/>
<path d="M129.512 153.997L121.988 176.912L118.155 173.117L106.655 161.731L103.072 151.347C108.052 150.989 113.032 150.595 118.012 150.237L129.476 153.997H129.512Z" fill="black"/>
<path d="M167.594 138.564C167.594 153.71 158.208 163.413 156.273 165.311L144.737 150.129V142.503L156.13 138.636L148.463 134.877L140.868 138.743H133.237L136.999 127.322L146.027 123.562L152.153 108.166C153.766 109.383 167.594 120.161 167.559 138.6L167.594 138.564Z" fill="black"/>
<path d="M128.758 54.8582L129.224 54.8558C131.194 54.8455 132.815 56.4482 132.825 58.4175L132.926 77.7161L125.296 77.756L125.195 58.4574C125.184 56.4882 126.788 54.8685 128.758 54.8582Z" fill="black"/>
<path d="M98.2554 58.8133L121.399 58.6922L121.479 73.9449L98.3353 74.066C96.3649 74.0763 94.7443 72.4735 94.734 70.5043L94.6916 62.4125C94.6813 60.4432 96.285 58.8236 98.2554 58.8133Z" fill="black"/>
<path d="M136.659 58.6123L159.802 58.4912C161.773 58.4809 163.393 60.0836 163.404 62.0529L163.446 70.1447C163.456 72.1139 161.853 73.7336 159.882 73.7439L136.739 73.865L136.659 58.6123Z" fill="black"/>
<path d="M121.522 85.3946L125.32 81.5635H132.951L136.784 85.323C136.498 85.7168 133.847 89.1541 129.189 89.1899C128.723 89.1899 124.353 89.1541 121.522 85.4304V85.3946Z" fill="black"/>
<path d="M75.7003 89.4404C79.9147 89.4404 83.3312 86.0259 83.3312 81.814C83.3312 77.602 79.9147 74.1875 75.7003 74.1875C71.4858 74.1875 68.0693 77.602 68.0693 81.814C68.0693 86.0259 71.4858 89.4404 75.7003 89.4404Z" fill="black"/>
<path d="M182.569 88.9033C186.784 88.9033 190.2 85.4888 190.2 81.2768C190.2 77.0649 186.784 73.6504 182.569 73.6504C178.355 73.6504 174.938 77.0649 174.938 81.2768C174.938 85.4888 178.355 88.9033 182.569 88.9033Z" fill="black"/>
<path d="M76.3458 207.668C80.5602 207.668 83.9767 204.253 83.9767 200.041C83.9767 195.83 80.5602 192.415 76.3458 192.415C72.1313 192.415 68.7148 195.83 68.7148 200.041C68.7148 204.253 72.1313 207.668 76.3458 207.668Z" fill="black"/>
<path d="M183.179 207.131C187.393 207.131 190.81 203.716 190.81 199.504C190.81 195.292 187.393 191.878 183.179 191.878C178.964 191.878 175.548 195.292 175.548 199.504C175.548 203.716 178.964 207.131 183.179 207.131Z" fill="black"/>
<path d="M110.738 222.742C114.953 222.742 118.369 219.328 118.369 215.116C118.369 210.904 114.953 207.489 110.738 207.489C106.524 207.489 103.107 210.904 103.107 215.116C103.107 219.328 106.524 222.742 110.738 222.742Z" fill="black"/>
<path d="M148.929 222.563C153.143 222.563 156.56 219.149 156.56 214.937C156.56 210.725 153.143 207.311 148.929 207.311C144.714 207.311 141.298 210.725 141.298 214.937C141.298 219.149 144.714 222.563 148.929 222.563Z" fill="black"/>
<path d="M209.582 145.977C213.797 145.977 217.213 142.562 217.213 138.35C217.213 134.138 213.797 130.724 209.582 130.724C205.368 130.724 201.951 134.138 201.951 138.35C201.951 142.562 205.368 145.977 209.582 145.977Z" fill="black"/>
<path d="M49.297 146.8C53.5114 146.8 56.9279 143.385 56.9279 139.173C56.9279 134.961 53.5114 131.547 49.297 131.547C45.0825 131.547 41.666 134.961 41.666 139.173C41.666 143.385 45.0825 146.8 49.297 146.8Z" fill="black"/>
<path d="M56.7843 116.223C60.9987 116.223 64.4152 112.808 64.4152 108.596C64.4152 104.384 60.9987 100.97 56.7843 100.97C52.5698 100.97 49.1533 104.384 49.1533 108.596C49.1533 112.808 52.5698 116.223 56.7843 116.223Z" fill="black"/>
<path d="M201.809 115.471C206.023 115.471 209.44 112.056 209.44 107.844C209.44 103.632 206.023 100.218 201.809 100.218C197.594 100.218 194.178 103.632 194.178 107.844C194.178 112.056 197.594 115.471 201.809 115.471Z" fill="black"/>
<path d="M198.297 176.518C202.511 176.518 205.928 173.103 205.928 168.891C205.928 164.679 202.511 161.265 198.297 161.265C194.082 161.265 190.666 164.679 190.666 168.891C190.666 173.103 194.082 176.518 198.297 176.518Z" fill="black"/>
<path d="M57.1075 181.065C61.3219 181.065 64.7384 177.651 64.7384 173.439C64.7384 169.227 61.3219 165.812 57.1075 165.812C52.893 165.812 49.4766 169.227 49.4766 173.439C49.4766 177.651 52.893 181.065 57.1075 181.065Z" fill="black"/>
<path d="M26.2963 82.3157L24.1467 87.4358L18.8803 86.9703L15.7276 94.3819L19.7401 97.8192L17.5906 102.904L0 86.5406L2.36452 80.9551L26.2963 82.3157ZM14.832 86.5048L6.87859 85.7887C6.26955 85.7529 5.62468 85.5739 4.87233 85.3591V85.4665C5.40972 85.7887 5.98294 86.1468 6.4845 86.5765L12.5749 91.8398L14.832 86.5048Z" fill="black"/>
<path d="M26.5467 81.7428L23.5014 79.8451C24.9345 78.9142 26.0451 77.7684 26.8691 76.4794C28.0513 74.5818 28.123 73.2928 27.084 72.6483C26.0093 71.968 24.827 72.6483 23.5373 74.7608L22.355 76.6585L19.7397 75.0472L20.9578 73.1138C22.0684 71.3235 22.1042 70.142 21.0653 69.4975C20.1338 68.9246 19.2023 69.4259 18.1992 71.0371C17.4469 72.2186 16.9811 73.5792 16.7662 75.1188L13.8643 73.2928C14.4016 71.3951 15.0823 69.8197 15.9063 68.4949C18.4142 64.5206 20.8862 63.2674 23.3581 64.807C25.0778 65.8812 25.4719 67.5998 24.5404 69.9629H24.6121C25.4002 68.9246 26.2959 68.2801 27.2632 67.9937C28.2305 67.7072 29.162 67.8504 30.0576 68.4233C32.8162 70.142 32.7804 73.2212 29.986 77.6968C28.9112 79.4154 27.7647 80.7402 26.5825 81.7428H26.5467Z" fill="black"/>
<path d="M45.6424 56.608L42.7047 60.0453L34.6796 53.2066C35.0379 54.0659 35.3245 54.8894 35.5753 55.7129L38.2622 65.237L35.1812 68.8175L22.9287 58.3267L25.9023 54.8536L33.6765 61.4775C33.3541 60.7614 33.1033 60.0453 32.8883 59.365L30.2014 49.8409L33.3899 46.1172L45.6424 56.608Z" fill="black"/>
<path d="M64.1281 41.1753L60.4738 44.0755L52.6279 34.2649C52.9145 34.802 53.3086 35.7329 53.846 37.0935L57.3569 46.5102L53.9176 49.2672L45.4985 43.7532C44.1013 42.8581 43.2773 42.2494 42.9907 41.963L50.8008 51.7377L47.7556 54.1725L37.6885 41.6049L42.8116 37.4874L50.9441 42.7507C52.198 43.5742 52.9862 44.1471 53.3444 44.5051C53.0937 44.0755 52.7354 43.1804 52.198 41.784L48.7945 32.6895L53.9893 28.5361L64.0564 41.1037L64.1281 41.1753Z" fill="black"/>
<path d="M72.87 18.0811L75.4495 36.4848C76.0585 40.9246 74.9837 43.8964 72.1893 45.4002C71.1145 45.9731 70.1831 46.3312 69.3591 46.4744L67.4603 43.0013C68.2126 43.0013 68.965 42.8581 69.6457 42.4642C70.7563 41.8555 71.2578 40.8888 71.1504 39.5998L70.9354 37.4515L57.4648 26.4952L62.3013 23.8456L69.6457 31.0066C70.1114 31.4363 70.5772 32.0092 71.0787 32.6895H71.1504C70.9354 32.0808 70.7563 31.3647 70.5772 30.5412L68.5351 20.4442L72.87 18.0811Z" fill="black"/>
<path d="M89.2066 15.8972L85.1583 17.4368L89.5649 28.966L84.8717 30.7563L80.4651 19.2271L76.3809 20.7667L75.0195 17.222L87.8452 12.3525L89.2066 15.8972Z" fill="black"/>
<path d="M117.079 4.08176L110.702 5.0485L113.425 23.2732L108.373 24.0251L105.65 5.8004L99.3092 6.76713L98.7002 2.68537L116.506 0L117.115 4.08176H117.079Z" fill="black"/>
<path d="M133.344 15.6105L122.776 15.8253C122.99 18.1526 124.495 19.2984 127.29 19.2268C129.081 19.2268 130.621 18.7255 131.947 17.8662L132.019 21.4467C130.55 22.2702 128.615 22.6999 126.215 22.7715C123.599 22.8431 121.557 22.1628 120.089 20.7306C118.62 19.3342 117.867 17.3291 117.796 14.7512C117.724 12.0658 118.476 9.95329 120.017 8.34207C121.557 6.73085 123.456 5.94314 125.713 5.87153C128.078 5.83572 129.905 6.48021 131.23 7.8408C132.556 9.20139 133.237 11.0991 133.273 13.498V15.5747L133.344 15.6105ZM128.687 12.6387C128.651 10.3471 127.684 9.20139 125.821 9.23719C125.033 9.23719 124.352 9.59524 123.779 10.2755C123.205 10.9558 122.883 11.7793 122.776 12.7819L128.723 12.6745L128.687 12.6387Z" fill="black"/>
<path d="M150.792 24.4194L145.812 23.7391L147.496 11.2432L144.773 10.8852C143.555 15.6472 142.265 18.8338 140.868 20.5167C139.471 22.1995 137.751 22.8798 135.709 22.5934C134.993 22.486 134.384 22.3069 133.811 22.0205L134.276 18.6548C134.635 18.8697 134.993 19.0129 135.387 19.0487C136.354 19.1919 137.321 18.3684 138.181 16.6497C139.077 14.9311 140.116 11.6729 141.262 6.875L152.906 8.45042L150.756 24.4194H150.792Z" fill="black"/>
<path d="M169.887 22.9154L159.748 19.9436C159.247 22.2351 160.357 23.7747 163.008 24.5624C164.728 25.0637 166.34 25.0995 167.881 24.6698L166.878 28.1071C165.23 28.4651 163.223 28.2861 160.931 27.6058C158.423 26.8539 156.667 25.6007 155.7 23.8105C154.733 22.0202 154.589 19.872 155.342 17.4014C156.094 14.8235 157.455 13.0332 159.39 11.9591C161.325 10.8849 163.367 10.7059 165.552 11.3146C167.809 11.9949 169.386 13.1764 170.21 14.8593C171.069 16.5421 171.141 18.5472 170.46 20.8387L169.887 22.8438V22.9154ZM166.304 18.6904C166.949 16.4705 166.376 15.1099 164.585 14.5728C163.832 14.358 163.044 14.4654 162.328 14.9309C161.575 15.3963 161.002 16.0766 160.608 17.0076L166.34 18.6904H166.304Z" fill="black"/>
<path d="M188.731 39.1703L184.575 37.0936L190.164 25.8867C189.806 26.3521 189.125 27.1399 188.086 28.1782L180.993 35.3392L177.052 33.3699L178.521 23.4161C178.772 21.7691 178.951 20.7666 179.094 20.4085L173.505 31.6155L169.994 29.861L177.195 15.4316L183.071 18.3676L181.709 27.9634C181.494 29.4314 181.315 30.4339 181.136 30.8636C181.423 30.4697 182.067 29.7536 183.106 28.6795L189.949 21.7691L195.932 24.7409L188.731 39.1703Z" fill="black"/>
<path d="M202.023 49.1598L198.225 46.3312L199.622 44.4694H199.586C197.652 45.2213 195.825 45.0065 194.105 43.7175C192.851 42.7865 192.135 41.6766 191.92 40.4234C191.741 39.1702 192.063 37.9529 192.959 36.7713C194.822 34.265 197.401 33.9427 200.661 35.7688L204.53 37.9171C205.569 36.5207 205.354 35.2317 203.814 34.0859C202.273 32.9402 200.446 32.2957 198.368 32.1883L200.59 29.1807C201.378 29.3239 202.309 29.6103 203.456 30.1474C204.602 30.6487 205.534 31.1857 206.358 31.7944C210.048 34.5514 210.549 37.7739 207.791 41.426L202.023 49.1598ZM202.166 41.1037L202.811 40.2444L200.231 38.7764C198.798 37.9887 197.723 38.0603 196.971 39.0628C196.649 39.5283 196.505 39.9938 196.613 40.5308C196.72 41.0679 197.043 41.5334 197.58 41.9272C198.333 42.5001 199.157 42.6791 199.98 42.5359C200.84 42.3569 201.557 41.8914 202.166 41.1037Z" fill="black"/>
<path d="M221.727 51.0223L218.646 47.9789L210.012 56.7869L206.43 53.278L215.064 44.47L211.947 41.4266L214.598 38.7412L224.379 48.3369L221.727 51.0223Z" fill="black"/>
<path d="M224.02 73.8657L221.262 70.2494L229.681 63.8761C228.785 64.0552 227.89 64.1626 227.066 64.1984L217.178 64.8071L214.312 61.0475L227.137 51.3086L229.896 54.9607L221.763 61.1191C222.516 60.9759 223.268 60.8685 223.985 60.7969L233.873 60.1882L236.846 64.091L223.985 73.8299L224.02 73.8657Z" fill="black"/>
<path d="M233.37 91.0158L230.54 85.7167L235.09 77.5174V77.4457L228.104 81.1695L225.739 76.7655L239.962 69.1748L242.327 73.5788L235.663 77.1593V77.2309L244.727 78.0544L247.521 83.282L237.956 81.6349L233.406 91.0158H233.37Z" fill="black"/>
<path d="M238.135 104.765L236.559 100.326L238.744 99.5379V99.4663C236.666 99.0367 235.269 97.8551 234.552 95.85C234.015 94.382 234.015 93.0572 234.552 91.9115C235.09 90.7657 236.057 89.9422 237.454 89.4409C240.392 88.4026 242.721 89.5484 244.44 92.8782L246.447 96.8168C248.095 96.2081 248.632 95.0265 247.987 93.2363C247.342 91.4102 246.196 89.8706 244.512 88.6174L248.059 87.3643C248.632 87.9013 249.241 88.689 249.922 89.7274C250.603 90.7657 251.068 91.7683 251.426 92.6992C252.967 97.0316 251.606 99.9676 247.271 101.507L238.207 104.73L238.135 104.765ZM242.721 98.1415L243.76 97.7835L242.434 95.1339C241.682 93.6659 240.715 93.1647 239.568 93.5943C239.031 93.7733 238.672 94.1314 238.457 94.6327C238.243 95.1339 238.243 95.671 238.457 96.3155C238.78 97.2106 239.317 97.8193 240.141 98.1415C240.965 98.4638 241.825 98.4996 242.757 98.1415H242.721Z" fill="black"/>
<path d="M231.865 186.436C231.686 185.147 232.009 183.5 232.833 181.567C233.764 179.275 235.233 177.7 237.203 176.84C239.174 175.981 241.252 176.017 243.473 176.912C246.017 177.95 247.7 179.526 248.524 181.638C249.348 183.751 249.241 186.114 248.202 188.656C247.485 190.411 246.733 191.592 245.945 192.201L242.04 190.59C243.151 189.909 243.939 188.978 244.44 187.797C244.978 186.472 245.013 185.255 244.584 184.181C244.118 183.106 243.222 182.283 241.861 181.71C240.535 181.173 239.353 181.101 238.278 181.531C237.239 181.961 236.415 182.82 235.914 184.109C235.448 185.255 235.34 186.544 235.627 187.94L231.937 186.436H231.865Z" fill="black"/>
<path d="M222.085 202.262L224.414 198.359L233.478 203.766C232.976 202.978 232.546 202.226 232.188 201.439L227.925 192.487L230.361 188.441L244.225 196.677L241.897 200.579L233.119 195.352C233.549 195.996 233.908 196.641 234.23 197.321L238.493 206.272L235.985 210.497L222.121 202.262H222.085Z" fill="black"/>
<path d="M212.699 214.758C212.914 213.469 213.702 212.001 215.028 210.354C216.604 208.42 218.467 207.346 220.581 207.096C222.73 206.845 224.701 207.49 226.528 208.993C228.641 210.712 229.788 212.717 229.967 215.009C230.146 217.3 229.358 219.484 227.603 221.633C226.384 223.101 225.31 224.031 224.378 224.354L221.118 221.668C222.372 221.346 223.411 220.702 224.235 219.699C225.131 218.589 225.525 217.443 225.417 216.262C225.31 215.08 224.665 214.042 223.554 213.111C222.444 212.216 221.333 211.822 220.187 211.929C219.04 212.037 218.037 212.61 217.141 213.72C216.353 214.686 215.887 215.868 215.744 217.264L212.663 214.722L212.699 214.758Z" fill="black"/>
<path d="M210.119 233.484L213.272 230.513L204.781 221.561L208.436 218.124L216.926 227.075L220.079 224.068L222.694 226.825L212.735 236.241L210.119 233.484Z" fill="black"/>
<path d="M192.708 239.356L201.234 233.126C199.73 231.335 197.831 231.264 195.574 232.911C194.141 233.949 193.102 235.202 192.529 236.706L190.415 233.806C191.167 232.266 192.493 230.798 194.428 229.402C196.541 227.862 198.619 227.254 200.625 227.576C202.632 227.898 204.423 229.08 205.928 231.192C207.504 233.34 208.113 235.525 207.791 237.709C207.432 239.893 206.358 241.647 204.53 243.008C202.632 244.404 200.733 244.905 198.87 244.547C197.007 244.189 195.359 243.044 193.962 241.11L192.744 239.427L192.708 239.356ZM198.261 239.105C199.622 240.967 201.055 241.361 202.56 240.251C203.205 239.785 203.563 239.105 203.671 238.21C203.742 237.315 203.563 236.455 203.062 235.596L198.261 239.105Z" fill="black"/>
<path d="M168.382 244.441L172.574 242.4L178.091 253.643C177.948 253.07 177.733 252.067 177.554 250.599L176.157 240.61L180.098 238.676L187.119 245.873C188.266 247.055 188.947 247.806 189.162 248.164L183.644 236.922L187.155 235.203L194.249 249.668L188.338 252.569L181.531 245.658C180.492 244.584 179.811 243.868 179.56 243.438C179.704 243.904 179.883 244.87 180.098 246.338L181.423 255.934L175.44 258.87L168.347 244.405L168.382 244.441Z" fill="black"/>
<path d="M143.984 250.85L148.857 249.668L152.726 265.315L147.854 266.496L144.02 250.85H143.984ZM165.516 245.55L169.385 261.197L164.548 262.379L163.187 256.901L159.031 257.903C157.24 258.333 155.771 258.261 154.553 257.617C153.335 257.008 152.547 255.898 152.153 254.358C151.759 252.747 151.938 251.351 152.69 250.169C153.442 248.988 154.696 248.164 156.416 247.735L165.516 245.515V245.55ZM162.435 253.893L161.432 249.811L159.067 250.384C157.419 250.778 156.774 251.673 157.133 253.069C157.455 254.394 158.422 254.86 159.999 254.466L162.399 253.857L162.435 253.893Z" fill="black"/>
<path d="M119.982 252.031C121.128 251.387 122.74 251.065 124.854 251.1C127.326 251.1 129.332 251.888 130.873 253.392C132.413 254.896 133.165 256.829 133.13 259.228C133.13 261.949 132.27 264.133 130.622 265.673C128.974 267.248 126.753 268 123.994 268C122.095 268 120.698 267.714 119.874 267.213V262.988C120.949 263.775 122.095 264.169 123.385 264.169C124.818 264.169 125.964 263.775 126.788 262.952C127.612 262.128 128.042 260.983 128.078 259.515C128.078 258.082 127.684 256.972 126.896 256.149C126.108 255.325 124.997 254.931 123.6 254.896C122.346 254.896 121.128 255.254 119.946 256.041V252.031H119.982Z" fill="black"/>
<path d="M102.391 249.023L107.37 249.775L105.472 262.235L108.194 262.665C109.52 257.939 110.881 254.752 112.279 253.105C113.676 251.458 115.431 250.813 117.473 251.136C118.19 251.243 118.799 251.458 119.336 251.744L118.835 255.074C118.512 254.859 118.118 254.716 117.724 254.644C116.757 254.501 115.79 255.289 114.858 257.008C113.927 258.726 112.852 261.949 111.598 266.711L99.9902 264.92L102.426 248.987L102.391 249.023Z" fill="black"/>
<path d="M83.2593 250.169L93.3264 253.32C93.8638 251.028 92.789 249.488 90.1379 248.629C88.4541 248.092 86.8061 248.02 85.2656 248.414L86.3403 244.977C88.0242 244.655 89.9946 244.87 92.2516 245.586C94.7595 246.373 96.4791 247.662 97.4106 249.488C98.3421 251.279 98.4495 253.427 97.6614 255.898C96.8732 258.44 95.476 260.23 93.5414 261.268C91.5709 262.307 89.5289 262.45 87.3435 261.77C85.0864 261.053 83.5459 259.836 82.7577 258.117C81.9337 256.399 81.8979 254.394 82.6144 252.102L83.2593 250.097V250.169ZM86.7703 254.465C86.0896 256.649 86.627 258.046 88.4183 258.619C89.1706 258.869 89.9229 258.762 90.7111 258.296C91.4635 257.831 92.0367 257.151 92.4666 256.256L86.7703 254.465Z" fill="black"/>
<path d="M61.0472 231.515L66.242 234.307L67.0301 243.867H67.1018L70.8994 236.778L75.2343 239.105L71.4367 246.195H71.5084L79.8917 241.576L85.0864 244.369L75.6642 248.916L77.3122 258.512L72.1533 255.755L71.2934 246.66H71.2218L67.6034 253.356L63.2684 251.028L66.851 244.297H66.7794L58.7185 248.629L53.5596 245.872L62.4444 241.934L60.9756 231.55L61.0472 231.515Z" fill="black"/>
<path d="M45.3915 226.753L53.6315 233.341C54.9571 231.407 54.5272 229.581 52.3418 227.827C50.9446 226.717 49.4757 226.072 47.8993 225.893L50.1564 223.101C51.8044 223.423 53.5957 224.318 55.4586 225.822C57.5007 227.469 58.6471 229.295 58.8621 231.3C59.0771 233.305 58.3964 235.346 56.7842 237.351C55.1004 239.428 53.1658 240.609 50.9804 240.86C48.795 241.11 46.7887 240.538 45.0333 239.105C43.2061 237.637 42.203 235.955 42.0597 234.057C41.9164 232.159 42.5971 230.297 44.1018 228.4L45.4274 226.753H45.3915ZM47.1112 232.016C45.6781 233.806 45.6781 235.31 47.1112 236.456C47.756 236.957 48.4726 237.136 49.3682 236.993C50.228 236.85 51.0162 236.42 51.7327 235.74L47.0753 232.016H47.1112Z" fill="black"/>
<path d="M37.4743 208.6L40.8419 212.288L35.8621 216.835L39.6239 220.952L44.6037 216.405L47.9713 220.093L36.0771 230.942L32.7095 227.254L37.116 223.244L33.3543 219.126L28.9477 223.136L25.5801 219.449L37.5101 208.6H37.4743Z" fill="black"/>
<path d="M26.7623 192.523L29.2343 196.319L20.3852 202.048C21.3167 201.94 22.1765 201.904 23.0364 201.904L32.9602 202.048L35.5396 206.022L21.9974 214.758L19.5254 210.927L28.1236 205.377C27.3355 205.485 26.5831 205.521 25.8666 205.521L15.9428 205.377L13.2559 201.26L26.7981 192.523H26.7623Z" fill="black"/>
<path d="M19.525 176.518L21.4954 181.065L15.9782 183.464L16.4439 184.502C16.8022 185.29 17.8053 185.72 19.525 185.756L23.6091 185.827L25.8303 190.911L20.7072 190.589C19.1667 190.482 17.9486 189.909 17.0888 188.871C17.7337 191.52 17.0171 193.31 14.8676 194.241C12.0015 195.495 9.63698 194.027 7.77403 189.802L4.76465 182.927L19.525 176.446V176.518ZM13.2912 184.646L9.67281 186.221L10.4252 187.94C11.1058 189.515 12.0732 190.052 13.2554 189.515C14.4735 188.978 14.7243 187.94 14.0436 186.328L13.2912 184.61V184.646Z" fill="black"/>
</g>
<defs>
<clipPath id="clip0_70_2487">
<rect width="252" height="268" fill="white"/>
</clipPath>
</defs>
</svg>
